<?xml version="1.0" encoding="UTF-8" standalone="no"?>
<!DOCTYPE svg PUBLIC "-//W3C//DTD SVG 1.1//EN" "http://www.w3.org/Graphics/SVG/1.1/DTD/svg11.dtd">
<svg xmlns="http://www.w3.org/2000/svg" xmlns:xlink="http://www.w3.org/1999/xlink" version="1.1" width="2044.6685pt" height="624.0338pt" viewBox="0 0 2044.6685 624.0338">
<g enable-background="new">
<path transform="matrix(2.7777777,0,0,-2.7777777,-439.04029,984.49746)" d="M 0 0 L 1024 0 L 1024 768 L 0 768 Z " fill="#ffffff"/>
<clipPath id="cp0">
<path transform="matrix(2.7777777,0,0,-2.7777777,-439.04029,984.49746)" d="M 0 0 L 1024 0 L 1024 768 L 0 768 Z "/>
</clipPath>
<g clip-path="url(#cp0)">
<path transform="matrix(2.7777777,0,0,-2.7777777,-439.04029,984.49746)" d="M 0 0 L 1024 0 L 1024 768 L 0 768 Z "/>
<path transform="matrix(2.7777777,0,0,-2.7777777,-439.04029,984.49746)" d="M 0 0 L 1024 0 L 1024 768 L 0 768 Z " fill="#ffffff"/>
<symbol id="font_1_3">
<path d="M 0 .72753909 L .12695313 .72753909 L .12695313 .24267578 C .12695313 .20426433 .13867188 .17301433 .16210938 .14892578 C .18554688 .12483724 .21777344 .11279297 .25878907 .11279297 C .3046875 .11279297 .34033204 .12451172 .36572267 .14794922 C .3914388 .17171224 .40429688 .20410156 .40429688 .24511719 L .40429688 .72753909 L .53125 .72753909 L .53125 .23535156 C .53125 .16178386 .50651046 .104166667 .45703126 .0625 C .4078776 .020833334 .3421224 0 .25976563 0 C .17675781 0 .11263021 .020345053 .06738281 .061035158 C .022460938 .10172526 0 .15999349 0 .23583985 L 0 .72753909 Z "/>
</symbol>
<use xlink:href="#font_1_3" transform="matrix(300,0,0,-300,574.599,277.0485)" fill="#0f2384"/>
<symbol id="font_1_4">
<path d="M .096191409 .03857422 L .068847659 0 L 0 0 L 0 .72753909 L .12207031 .75683596 L .12207031 .5126953 C .15462239 .53255209 .19010417 .54248049 .22851563 .54248049 C .30501304 .54248049 .36669923 .5182292 .41357423 .46972657 C .46044923 .42154948 .48388673 .35970054 .48388673 .2841797 C .48388673 .19661458 .46028648 .12727864 .41308595 .076171878 C .3658854 .025390625 .30192057 0 .2211914 0 C .1726888 0 .13102214 .012858073 .096191409 .03857422 M .12207031 .40820313 L .12207031 .1352539 C .13997396 .114095058 .16422527 .103515628 .19482422 .103515628 C .2537435 .103515628 .29541017 .11751302 .31982423 .14550781 C .3445638 .17350261 .3569336 .21826172 .3569336 .27978517 C .3569336 .38590495 .30615235 .43896485 .20458985 .43896485 C .16845703 .43896485 .14095052 .42871095 .12207031 .40820313 Z "/>
</symbol>
<symbol id="font_1_5">
<path d="M .12988281 .72558596 C .14941406 .72558596 .16601563 .7185872 .1796875 .70458987 C .19368489 .69091799 .2006836 .6743164 .2006836 .65478518 C .2006836 .6352539 .19368489 .61848959 .1796875 .6044922 C .16601563 .5908203 .14941406 .5839844 .12988281 .5839844 C .11035156 .5839844 .09358724 .5908203 .079589847 .6044922 C .06591797 .61848959 .05908203 .6352539 .05908203 .65478518 C .05908203 .6743164 .06591797 .69091799 .079589847 .70458987 C .09358724 .7185872 .11035156 .72558596 .12988281 .72558596 M .06689453 0 L .06689453 .42285157 L 0 .42285157 L 0 .5229492 L .19042969 .5229492 L .19042969 0 L .06689453 0 Z "/>
</symbol>
<use xlink:href="#font_1_4" transform="matrix(297.2222,0,0,-297.2222,772.63638,276.28895)" fill="#0f2384"/>
<use xlink:href="#font_1_5" transform="matrix(297.2222,0,0,-297.2222,938.2147,273.38639)" fill="#0f2384"/>
<symbol id="font_2_5">
<path d="M .3642578 0 L .3642578 .23583985 C .3372396 .20882161 .2919922 .1953125 .22851563 .1953125 C .15722656 .1953125 .10123698 .21907552 .060546876 .26660157 C .020182291 .31445313 0 .38069663 0 .46533204 C 0 .5489909 .023111979 .6152344 .06933594 .6640625 C .115885417 .7132161 .17561849 .73779299 .24853516 .73779299 C .29410807 .73779299 .33658854 .7213542 .37597657 .68847659 L .4008789 .72802737 L .45703126 .72802737 L .45703126 0 L .3642578 0 M .3642578 .6196289 C .3375651 .6463216 .30419923 .65966799 .26416017 .65966799 C .2117513 .65966799 .17089844 .64192709 .14160156 .6064453 C .11230469 .57096359 .09765625 .5239258 .09765625 .46533204 C .09765625 .40478517 .11230469 .35758464 .14160156 .32373048 C .17089844 .2902018 .21044922 .2734375 .2602539 .2734375 C .30485026 .2734375 .33951823 .28483073 .3642578 .3076172 L .3642578 .6196289 Z "/>
</symbol>
<symbol id="font_2_8">
<path d="M .09277344 .53271487 L .09277344 .19921875 C .09277344 .118489589 .12776692 .078125 .1977539 .078125 C .22835286 .078125 .25634767 .08691406 .28173829 .10449219 C .3071289 .12207031 .32389323 .14241536 .33203126 .16552735 L .33203126 .53271487 L .4248047 .53271487 L .4248047 .009765625 L .33203126 .009765625 L .33203126 .08203125 C .3216146 .061523439 .3006185 .04264323 .26904298 .025390625 C .23779297 .008463542 .20719402 0 .1772461 0 C .11995443 0 .07600912 .016438803 .045410158 .049316408 C .015136719 .08219401 0 .12890625 0 .18945313 L 0 .53271487 L .09277344 .53271487 Z "/>
</symbol>
<symbol id="font_2_2">
<path d="M .122558597 .7207031 C .13850911 .7207031 .15201824 .71500656 .16308594 .7036133 C .17447917 .6925456 .18017578 .6791992 .18017578 .6635742 C .18017578 .6476237 .17447917 .63395187 .16308594 .6225586 C .15201824 .6114909 .13850911 .60595706 .122558597 .60595706 C .106933597 .60595706 .09342448 .6114909 .08203125 .6225586 C .07096354 .63395187 .06542969 .6476237 .06542969 .6635742 C .06542969 .6795247 .07096354 .6930339 .08203125 .70410159 C .09309896 .71516928 .10660807 .7207031 .122558597 .7207031 M .071777347 0 L .071777347 .44482423 L 0 .44482423 L 0 .5229492 L .16455078 .5229492 L .16455078 0 L .071777347 0 Z "/>
</symbol>
<symbol id="font_2_7">
<path d="M .060546876 .45947267 L 0 .45947267 L 0 .53271487 L .060546876 .53271487 L .060546876 .64208987 L .15332031 .6777344 L .15332031 .53271487 L .296875 .53271487 L .296875 .45947267 L .15332031 .45947267 L .15332031 .19970703 C .15332031 .15576172 .16064453 .12451172 .17529297 .10595703 C .19026692 .087402347 .2141927 .078125 .24707031 .078125 C .27083335 .078125 .29541017 .08414713 .32080079 .096191409 L .33447267 .0146484379 C .2960612 .0048828127 .25390626 0 .20800781 0 C .16666667 0 .13167317 .0152994799 .103027347 .045898439 C .07470703 .076822917 .060546876 .115722659 .060546876 .16259766 L .060546876 .45947267 Z "/>
</symbol>
<symbol id="font_2_4">
<path d="M 0 .27246095 C 0 .3531901 .021647135 .41829429 .064941409 .46777345 C .108561199 .5175781 .16585286 .54248049 .2368164 .54248049 C .3116862 .54248049 .36979167 .5185547 .4111328 .47070313 C .45247398 .4231771 .47314454 .35709635 .47314454 .27246095 C .47314454 .18815105 .4519857 .12158203 .40966798 .072753909 C .36735026 .024251303 .30973307 0 .2368164 0 C .16227214 0 .104166667 .024576823 .0625 .07373047 C .020833334 .12288412 0 .18912761 0 .27246095 M .09765625 .27246095 C .09765625 .14127605 .14404297 .075683597 .2368164 .075683597 C .2801107 .075683597 .31396485 .09326172 .3383789 .12841797 C .3631185 .16357422 .37548829 .21158855 .37548829 .27246095 C .37548829 .40201823 .3292643 .46679688 .2368164 .46679688 C .1944987 .46679688 .16064453 .44954429 .1352539 .41503907 C .110188808 .38053385 .09765625 .3330078 .09765625 .27246095 Z "/>
</symbol>
<symbol id="font_2_6">
<path d="M 0 .041015626 L .032714845 .12890625 C .084472659 .095052089 .12613933 .078125 .15771485 .078125 C .21500652 .078125 .24365235 .10221354 .24365235 .15039063 C .24365235 .18489583 .21598308 .21451824 .16064453 .23925781 C .118001308 .25878907 .08919271 .27360026 .07421875 .2836914 C .059570314 .29378257 .04671224 .30517579 .03564453 .3178711 C .024902344 .33089195 .016764323 .3445638 .011230469 .35888673 C .0060221354 .37353517 .0034179688 .38916017 .0034179688 .40576173 C .0034179688 .44873048 .019042969 .48225913 .05029297 .50634768 C .08154297 .5304362 .122395839 .54248049 .17285156 .54248049 C .2109375 .54248049 .2589518 .5304362 .31689454 .50634768 L .29052735 .42041017 C .2537435 .44970704 .21679688 .46435548 .1796875 .46435548 C .15755208 .46435548 .13883464 .45914714 .123535159 .44873048 C .108561199 .4383138 .10107422 .42513023 .10107422 .4091797 C .10107422 .37565104 .12011719 .3502604 .15820313 .3330078 L .22460938 .30273438 C .26529948 .2841797 .29492188 .26302085 .31347657 .23925781 C .33203126 .2154948 .3413086 .18570964 .3413086 .14990235 C .3413086 .103027347 .32486979 .06624349 .2919922 .03955078 C .2591146 .013183594 .21354167 0 .15527344 0 C .100260417 0 .048502607 .013671875 0 .041015626 Z "/>
</symbol>
<use xlink:href="#font_2_5" transform="matrix(297.2222,0,0,-297.2222,1034.2101,334.34016)" fill="#0f2384"/>
<use xlink:href="#font_2_8" transform="matrix(297.2222,0,0,-297.2222,1207.049,276.28895)" fill="#0f2384"/>
<use xlink:href="#font_2_2" transform="matrix(297.2222,0,0,-297.2222,1362.8313,273.38639)" fill="#0f2384"/>
<use xlink:href="#font_2_7" transform="matrix(297.2222,0,0,-297.2222,1447.4242,276.28895)" fill="#0f2384"/>
<use xlink:href="#font_2_4" transform="matrix(297.2222,0,0,-297.2222,1563.1222,276.28895)" fill="#0f2384"/>
<use xlink:href="#font_2_8" transform="matrix(297.2222,0,0,-297.2222,1731.1707,276.28895)" fill="#0f2384"/>
<use xlink:href="#font_2_6" transform="matrix(297.2222,0,0,-297.2222,1884.7761,276.28895)" fill="#0f2384"/>
<symbol id="font_1_2">
<path d="M .52441409 .6894531 L .47216798 .58447268 C .44384767 .61279299 .39827476 .6269531 .33544923 .6269531 C .2758789 .6269531 .22705078 .601888 .18896485 .5517578 C .1508789 .5019531 .13183594 .4388021 .13183594 .3623047 C .13183594 .28580729 .14941406 .22509766 .18457031 .18017578 C .22005208 .1352539 .2672526 .11279297 .32617188 .11279297 C .3935547 .11279297 .44628907 .13688152 .484375 .1850586 L .54345706 .08251953 C .49169923 .02750651 .41585288 0 .31591798 0 C .21598308 0 .13834636 .032877607 .08300781 .09863281 C .027669272 .16438802 0 .254069 0 .36767579 C 0 .47347007 .030598959 .56184896 .091796878 .6328125 C .15332031 .70410159 .2319336 .7397461 .32763673 .7397461 C .40966798 .7397461 .4752604 .72298178 .52441409 .6894531 Z "/>
</symbol>
<symbol id="font_1_7">
<path d="M 0 .27246095 C 0 .35221354 .022949219 .41715495 .068847659 .46728517 C .11507162 .51741537 .17594402 .54248049 .25146485 .54248049 C .33089195 .54248049 .39257813 .5183919 .43652345 .47021485 C .48046876 .42203776 .5024414 .35611979 .5024414 .27246095 C .5024414 .18912761 .47998048 .12288412 .4350586 .07373047 C .39046226 .024576823 .3292643 0 .25146485 0 C .17203777 0 .110188808 .024739584 .06591797 .07421875 C .021972657 .12402344 0 .19010417 0 .27246095 M .12695313 .27246095 C .12695313 .15722656 .16845703 .099609378 .25146485 .099609378 C .28955079 .099609378 .31966148 .114583339 .34179688 .14453125 C .3642578 .17447917 .37548829 .21712239 .37548829 .27246095 C .37548829 .38606773 .33414714 .4428711 .25146485 .4428711 C .2133789 .4428711 .18310547 .42789714 .16064453 .39794923 C .1381836 .3680013 .12695313 .32617188 .12695313 .27246095 Z "/>
</symbol>
<symbol id="font_1_6">
<path d="M .60546877 0 L .60546877 .32763673 C .60546877 .39632163 .57470706 .43066407 .5131836 .43066407 C .49495445 .43066407 .4773763 .42529298 .46044923 .41455079 C .44352214 .4038086 .43164063 .3914388 .4248047 .3774414 L .4248047 0 L .30273438 0 L .30273438 .3466797 C .30273438 .37239585 .29475913 .39274089 .2788086 .40771485 C .26285807 .4230143 .24039714 .43066407 .21142578 .43066407 C .1961263 .43066407 .17936199 .42496745 .16113281 .41357423 C .14322917 .402181 .13020833 .38964845 .12207031 .37597657 L .12207031 0 L 0 0 L 0 .5229492 L .083984378 .5229492 L .10888672 .47705079 C .14274089 .51416018 .18652344 .53271487 .24023438 .53271487 C .3095703 .53271487 .3618164 .51383468 .39697267 .47607423 C .41227214 .4933268 .43359376 .5069987 .4609375 .51708987 C .48828126 .52750656 .515625 .53271487 .54296877 .53271487 C .601237 .53271487 .6464844 .5159505 .67871096 .48242188 C .711263 .44921876 .72753909 .40348307 .72753909 .34521485 L .72753909 0 L .60546877 0 Z "/>
</symbol>
<symbol id="font_1_8">
<path d="M .12207031 .21826172 L .12207031 0 L 0 0 L 0 .72802737 L .12207031 .72802737 L .12207031 .6928711 C .15266927 .72281906 .19026692 .73779299 .23486328 .73779299 C .40152995 .73779299 .48486329 .6459961 .48486329 .46240235 C .48486329 .37679038 .4617513 .3108724 .41552735 .26464845 C .3696289 .21842449 .30680339 .1953125 .22705078 .1953125 C .18863933 .1953125 .15364583 .20296224 .12207031 .21826172 M .12207031 .60009768 L .12207031 .3251953 C .14420574 .30729167 .17008464 .29833985 .19970703 .29833985 C .25602214 .29833985 .29638673 .3116862 .32080079 .3383789 C .34554038 .36539714 .35791017 .4078776 .35791017 .4658203 C .35791017 .52766928 .34570313 .5711263 .32128907 .5961914 C .296875 .62158206 .2565104 .63427737 .20019531 .63427737 C .17089844 .63427737 .14485677 .6228841 .12207031 .60009768 Z "/>
</symbol>
<use xlink:href="#font_1_2" transform="matrix(297.2222,0,0,-297.2222,564.2366,515.90347)" fill="#0f2384"/>
<use xlink:href="#font_1_7" transform="matrix(297.2222,0,0,-297.2222,743.90029,515.17788)" fill="#0f2384"/>
<use xlink:href="#font_1_6" transform="matrix(297.2222,0,0,-297.2222,922.22756,512.27529)" fill="#0f2384"/>
<use xlink:href="#font_1_8" transform="matrix(297.2222,0,0,-297.2222,1174.8767,573.22909)" fill="#0f2384"/>
<symbol id="font_2_3">
<path d="M .32177735 0 L .32177735 .30419923 C .32177735 .35986329 .3133138 .39876304 .29638673 .42089845 C .27978517 .44335938 .25179038 .45458985 .21240235 .45458985 C .19124349 .45458985 .16910808 .4482422 .1459961 .43554688 C .12288412 .42285157 .10514323 .40722657 .09277344 .38867188 L .09277344 0 L 0 0 L 0 .5229492 L .06347656 .5229492 L .09277344 .4555664 C .1233724 .5069987 .17333985 .53271487 .24267578 .53271487 C .35725913 .53271487 .41455079 .46305339 .41455079 .32373048 L .41455079 0 L .32177735 0 Z "/>
</symbol>
<symbol id="font_2_1">
<path d="M .0078125 .06201172 L .05810547 .13623047 C .11214193 .100097659 .16194661 .08203125 .20751953 .08203125 C .24951172 .08203125 .2825521 .08935547 .30664063 .104003909 C .3310547 .11832682 .34326173 .13623047 .34326173 .15771485 C .34326173 .20003255 .31266276 .2211914 .25146485 .2211914 C .24104817 .2211914 .22216797 .21858724 .19482422 .2133789 C .16748047 .20817058 .14615886 .2055664 .13085938 .2055664 C .056640626 .2055664 .01953125 .2335612 .01953125 .28955079 C .01953125 .30680339 .028157553 .32242839 .045410158 .33642579 C .06298828 .3504232 .084635417 .3605143 .11035156 .36669923 C .036783857 .40120445 0 .46110026 0 .5463867 C 0 .6010742 .019042969 .64664718 .057128908 .68310549 C .095214847 .7195638 .14225261 .73779299 .19824219 .73779299 C .24967449 .73779299 .2898763 .72721359 .31884767 .7060547 L .36523438 .76171877 L .42578126 .70458987 L .3701172 .66259768 C .39388023 .63167318 .40576173 .5913086 .40576173 .5415039 C .40576173 .48876954 .3893229 .4444987 .3564453 .4086914 C .32356773 .37288413 .2804362 .3523763 .22705078 .34716798 L .15039063 .33935548 C .14127605 .3383789 .12906902 .3347982 .11376953 .32861329 C .098470058 .3227539 .09082031 .3149414 .09082031 .30517579 C .09082031 .29182945 .106770839 .28515626 .13867188 .28515626 C .15266927 .28515626 .17447917 .28759767 .20410156 .29248048 C .23372396 .2976888 .25569663 .30029298 .27001954 .30029298 C .3214518 .30029298 .36149089 .2879232 .39013673 .2631836 C .41910807 .23876953 .43359376 .20475261 .43359376 .16113281 C .43359376 .11295573 .41194663 .07405599 .36865235 .044433595 C .3256836 .014811198 .27115885 0 .20507813 0 C .17122396 0 .13557942 .0060221354 .09814453 .018066407 C .060709638 .030110678 .030598959 .044759115 .0078125 .06201172 M .20458985 .66308596 C .17236328 .66308596 .1459961 .6516927 .12548828 .62890627 C .10530599 .6061198 .095214847 .5784505 .095214847 .54589846 C .095214847 .5094401 .10498047 .47916667 .12451172 .45507813 C .14436849 .4313151 .1710612 .4194336 .20458985 .4194336 C .23746746 .4194336 .2631836 .4309896 .28173829 .45410157 C .30029298 .47753907 .3095703 .508138 .3095703 .54589846 C .3095703 .5784505 .29947917 .6061198 .27929688 .62890627 C .2594401 .6516927 .23453777 .66308596 .20458985 .66308596 Z "/>
</symbol>
<use xlink:href="#font_2_8" transform="matrix(297.2222,0,0,-297.2222,1355.2373,515.17788)" fill="#0f2384"/>
<use xlink:href="#font_2_7" transform="matrix(297.2222,0,0,-297.2222,1510.9636,515.17788)" fill="#0f2384"/>
<use xlink:href="#font_2_2" transform="matrix(297.2222,0,0,-297.2222,1628.9277,512.27529)" fill="#0f2384"/>
<use xlink:href="#font_2_3" transform="matrix(297.2222,0,0,-297.2222,1721.737,512.27529)" fill="#0f2384"/>
<use xlink:href="#font_2_1" transform="matrix(297.2222,0,0,-297.2222,1876.1572,573.22909)" fill="#0f2384"/>
</g>
<clipPath id="cp3">
<path transform="matrix(2.7777777,0,0,-2.7777777,-439.04029,984.49746)" d="M 159 355 L 371 355 L 371 148 L 159 148 Z M 158.7935 354.6927 "/>
</clipPath>
<g clip-path="url(#cp3)">
<clipPath id="cp4">
<path transform="matrix(2.7777777,0,0,-2.7777777,-439.04029,984.49746)" d="M 159 148.4427 L 371.4831 148.4427 L 371.4831 354.6927 L 159 354.6927 Z "/>
</clipPath>
<g clip-path="url(#cp4)">
<path transform="matrix(2.7777777,0,0,-2.7777777,-439.04029,984.49746)" d="M 471.7155 193.1643 L 470.7933 165.0734 L 372.7464 165.0734 C 373.7459 190.7786 374.2452 222.1122 374.2452 254.37 C 374.2452 285.3559 373.7459 316.0819 372.7464 337.9587 L 466.3 337.9587 L 465.0313 309.9982 C 441.9913 311.3602 421.0989 312.0392 402.3582 312.0392 C 403.1236 300.2102 403.5104 281.9517 403.5104 265.8647 C 419.5639 265.8647 436.7284 266.3295 455.0101 267.2672 L 455.0101 240.5838 C 437.0348 241.4325 419.8693 241.8579 403.5104 241.8579 C 403.5104 224.5776 403.8126 206.0573 404.4295 190.9929 C 425.4787 190.9929 447.906 191.7163 471.7155 193.1643 " fill="#008877"/>
<path transform="matrix(2.7777777,0,0,-2.7777777,-439.04029,984.49746)" d="M 586.4597 214.4822 C 586.4597 181.2007 564.8793 164.56 521.7123 164.56 C 507.0409 164.56 493.4094 166.5172 480.8104 170.4347 L 486.459 198.9054 C 498.9023 194.1382 510.6513 191.7567 521.7123 191.7567 C 534.0018 191.7567 542.8337 193.0753 548.213 195.7156 C 553.5883 198.3507 556.2764 202.7784 556.2764 208.9925 C 556.2764 215.4613 553.742 220.9106 548.6731 225.3383 C 544.2933 229.2516 535.4242 234.3583 522.0588 240.6563 C 509.922 246.4461 500.8962 252.7451 494.9815 259.5533 C 487.5308 268.1531 483.808 278.7494 483.808 291.3475 C 483.808 305.9875 488.683 317.4367 498.4381 325.6929 C 508.2705 333.9481 522.3652 338.0798 540.7232 338.0798 C 555.7761 338.0798 568.4122 336.6732 578.6274 333.8632 L 574.3641 305.5176 C 563.9963 309.6908 552.7827 311.7763 540.7232 311.7763 C 522.5942 311.7763 513.5323 306.4119 513.5323 295.6893 C 513.5323 289.9854 515.6438 285.3476 519.871 281.7696 C 523.5576 278.7049 531.5839 274.4076 543.9508 268.8766 C 557.082 263.0019 566.9134 256.5332 573.4409 249.4662 C 582.1201 240.0177 586.4597 228.3584 586.4597 214.4822 " fill="#008877"/>
<path transform="matrix(2.7777777,0,0,-2.7777777,-439.04029,984.49746)" d="M 697.0015 214.4822 C 697.0015 181.2007 675.4169 164.56 632.2499 164.56 C 617.5786 164.56 603.9481 166.5172 591.3522 170.4347 L 596.9967 198.9054 C 609.4399 194.1382 621.1889 191.7567 632.2499 191.7567 C 644.5394 191.7567 653.3723 193.0753 658.7507 195.7156 C 664.1259 198.3507 666.8141 202.7784 666.8141 208.9925 C 666.8141 215.4613 664.2796 220.9106 659.2107 225.3383 C 654.8309 229.2516 645.9619 234.3583 632.5965 240.6563 C 620.4596 246.4461 611.4338 252.7451 605.5191 259.5533 C 598.0684 268.1531 594.3457 278.7494 594.3457 291.3475 C 594.3457 305.9875 599.2217 317.4367 608.9768 325.6929 C 618.8082 333.9481 632.9029 338.0798 651.2608 338.0798 C 666.3138 338.0798 678.9499 336.6732 689.165 333.8632 L 684.9018 305.5176 C 674.534 309.6908 663.3203 311.7763 651.2608 311.7763 C 633.1329 311.7763 624.07 306.4119 624.07 295.6893 C 624.07 289.9854 626.1815 285.3476 630.4086 281.7696 C 634.0953 278.7049 642.1216 274.4076 654.4884 268.8766 C 667.6197 263.0019 677.4511 256.5332 683.9827 249.4662 C 692.6619 240.0177 697.0015 228.3584 697.0015 214.4822 " fill="#008877"/>
<path transform="matrix(2.8653334,0,0,2.8749998,2.6263767,-1.6136168)" stroke-width="12.03224" stroke-linecap="butt" stroke-miterlimit="4" stroke-linejoin="miter" fill="none" stroke="#008876" d="M 22.016 22.016 L 177.985 22.016 L 177.985 177.985 L 22.016 177.985 Z "/>
<path transform="matrix(2.7777777,0,0,-2.7777777,-439.04029,984.49746)" d="M 263.7477 290.83 L 249.4271 240.0467 L 240.4736 255.1463 L 232.3751 247.6715 L 203.2223 247.7481 L 203.2223 250.6834 L 230.5895 250.6068 L 241.5422 260.9205 L 247.916 250.3925 L 267.9667 323.8206 L 268.3978 282.8532 L 268.8527 214.301 L 277.9755 250.8572 L 321.42 250.8572 L 321.5252 247.7481 L 281.8798 247.6839 L 264.7834 177.2874 Z " fill="#003c00"/>
<path transform="matrix(2.8653334,0,0,2.8749998,2.6263767,-1.6136168)" stroke-width="11.95658" stroke-linecap="butt" stroke-miterlimit="4" stroke-linejoin="miter" fill="none" stroke="#008876" d="M 157.789 98.602 C 157.789 130.516 131.914 156.387 100 156.387 C 68.086 156.387 42.211 130.516 42.211 98.602 C 42.211 66.684 68.086 40.812 100 40.812 C 131.914 40.812 157.789 66.684 157.789 98.602 Z "/>
<path transform="matrix(2.7777777,0,0,-2.7777777,-439.04029,984.49746)" d="M 262.7925 293.2312 L 248.472 242.4437 L 239.5194 257.5485 L 231.4199 250.0727 L 202.2712 250.1452 L 202.2712 253.0804 L 229.6385 253.008 L 240.587 263.3176 L 246.9608 252.7937 L 267.0156 326.2218 L 267.4426 285.2544 L 267.8975 216.6981 L 277.0244 253.2543 L 320.4689 253.2543 L 320.5742 250.1452 L 280.9246 250.081 L 263.8323 179.6844 Z " fill="#008877"/>
</g>
</g>
<clipPath id="cp5">
<path transform="matrix(2.7777777,0,0,-2.7777777,-439.04029,984.49746)" d="M 173.5248 163.8006 L 350.1033 163.8006 L 350.1033 339.3306 L 173.5248 339.3306 Z "/>
</clipPath>
<g clip-path="url(#cp5)">
<path transform="matrix(2.7777777,0,0,2.7777777,65.19525,64.13472)" stroke-width="14" stroke-linecap="butt" stroke-miterlimit="4" stroke-linejoin="miter" fill="none" stroke="#0f2384" d="M 0 0 L 160.5785 0 L 160.5785 159.53 L 0 159.53 Z M 0 0 "/>
</g>
</g>
</svg>
